<svg xmlns="http://www.w3.org/2000/svg" width="64" height="104" version="1.1">
  <defs>
    <style>
      .bg { fill: #141313; }
      .panel { fill: #201f1f; }
      .edge { fill: #444748; }
      .focus { fill: #2a2a2a; }
      .clear { fill: #141313; fill-opacity: 0; }
      .item-base { fill: #141313; }
      .item-focus { fill: #1c1b1b; }
      .item-active { fill: #2a2a2a; }
      .item-disabled { fill: #0e0e0e; }
    </style>
  </defs>
  <rect id="button-normal" class="panel" x="0" y="0" width="16" height="16"/>
  <rect id="button-normal-top" class="edge" x="0" y="0" width="16" height="1"/>
  <rect id="button-normal-bottom" class="edge" x="0" y="15" width="16" height="1"/>
  <rect id="button-normal-left" class="edge" x="0" y="0" width="1" height="16"/>
  <rect id="button-normal-right" class="edge" x="15" y="0" width="1" height="16"/>
  <rect id="button-focused" class="focus" x="20" y="0" width="16" height="16"/>
  <rect id="button-pressed" class="focus" x="40" y="0" width="16" height="16"/>
  <rect id="common-normal" class="panel" x="0" y="20" width="16" height="16"/>
  <rect id="common-focused" class="focus" x="20" y="20" width="16" height="16"/>
  <rect id="lineedit-normal" class="bg" x="40" y="20" width="16" height="16"/>
  <rect id="lineedit-focused" class="panel" x="0" y="40" width="16" height="16"/>
  <rect id="focus" class="focus" x="20" y="40" width="16" height="16"/>
  <rect id="menu-normal" class="panel" x="40" y="40" width="16" height="16"/>
  <rect id="menuitem-normal" class="clear" x="0" y="58" width="8" height="4"/>
  <rect id="menuitem-focused" class="focus" x="12" y="58" width="8" height="4"/>
  <rect id="itemview-normal" class="item-base" x="0" y="68" width="16" height="16"/>
  <rect id="itemview-focused" class="item-focus" x="20" y="68" width="16" height="16"/>
  <rect id="itemview-pressed" class="item-active" x="40" y="68" width="16" height="16"/>
  <rect id="itemview-toggled" class="item-active" x="0" y="88" width="16" height="16"/>
  <rect id="itemview-disabled" class="item-disabled" x="20" y="88" width="16" height="16"/>
</svg>
